<svg width="1024" height="1024" viewBox="0 0 1024 1024" fill="none" xmlns="http://www.w3.org/2000/svg">
<g clip-path="url(#clip0_110_20)">
<path d="M32 1024V18.2857H251.11V164.571H295.675L260.395 190.171C260.395 132.876 277.106 87.1619 310.53 53.0286C343.954 17.6761 385.424 0 434.94 0C488.17 0 529.64 22.5524 559.35 67.6571C589.06 112.762 603.915 172.496 603.915 246.857L570.491 164.571H622.484L605.772 190.171C605.772 132.876 621.864 87.1619 654.05 53.0286C686.236 17.6761 729.562 0 784.031 0C845.927 0 896.062 23.1619 934.437 69.4857C972.812 114.59 992 176.761 992 256V1024H752.464V274.286C752.464 246.247 746.274 224.914 733.896 210.286C721.517 194.439 703.566 186.514 680.046 186.514C656.527 186.514 638.576 194.439 626.197 210.286C613.819 224.914 607.629 246.247 607.629 274.286V1024H416.371V274.286C416.371 246.247 410.181 224.914 397.803 210.286C385.424 194.439 367.473 186.514 343.954 186.514C320.434 186.514 302.483 194.439 290.104 210.286C277.726 224.914 271.536 246.247 271.536 274.286V1024H32Z" fill="url(#paint0_linear_110_20)"/>
</g>
<defs>
<linearGradient id="paint0_linear_110_20" x1="512" y1="0" x2="512" y2="1024" gradientUnits="userSpaceOnUse">
<stop stop-color="#97F0BD"/>
<stop offset="0.5" stop-color="#44D882"/>
<stop offset="1" stop-color="#44D8AE"/>
</linearGradient>
<clipPath id="clip0_110_20">
<rect width="1024" height="1024" fill="white"/>
</clipPath>
</defs>
</svg>
