<svg width="1024" height="814" viewBox="0 0 1024 814" fill="none" xmlns="http://www.w3.org/2000/svg">
<path d="M853.259 620.975L891.368 640.756C880.392 661.948 854.334 670.22 833.165 659.232C811.996 648.245 803.732 622.158 814.708 600.966C814.711 600.96 814.715 600.952 814.721 600.94C814.739 600.905 814.771 600.844 814.816 600.756C814.905 600.582 815.049 600.303 815.243 599.923C815.63 599.164 816.221 598.002 816.996 596.46C818.546 593.377 820.834 588.777 823.711 582.854C829.467 571.003 837.566 553.884 846.831 533.024C865.421 491.172 888.438 434.86 906.698 376.118C925.152 316.753 937.799 257.855 937.648 209.929C937.495 161.642 924.791 136.195 906.252 124.336L905.364 123.781C872.339 103.619 836.597 100.964 796.763 112.875C755.623 125.176 711.199 152.909 666.313 192.035C664.337 193.757 662.365 195.498 660.397 197.255C660.784 224.638 658.177 252.873 653.811 280.719C637.276 386.194 592.679 502.358 559.437 582.635L556.257 590.29C537.667 634.898 502.516 695.037 464.678 740.486C445.975 762.951 424.311 784.656 401.424 798.392C379.451 811.58 343.931 824.042 310.4 801.766V801.766C278.891 780.833 274.85 742.645 275.106 718.51C275.402 690.656 281.709 658.39 290.581 626.41C308.468 561.937 339.606 488.749 369.599 434.017L370.841 431.759C416.64 348.665 488.248 245.147 570.949 162.917C569.96 157.292 568.737 151.952 567.27 146.911C559.218 119.234 544.503 101.579 519.357 92.208L518.152 91.7679C478.447 77.5741 433.235 92.2844 379.686 143.87C326.893 194.727 276.138 272.549 231.423 356.636C187.065 440.054 150.213 526.619 124.381 592.608C111.493 625.533 101.41 653.176 94.5661 672.535C91.1454 682.212 88.537 689.81 86.7955 694.953C85.9249 697.525 85.2712 699.482 84.8412 700.778C84.6262 701.425 84.4672 701.908 84.3649 702.219C84.3138 702.374 84.2766 702.488 84.254 702.557C84.2427 702.591 84.2347 702.615 84.2306 702.628C84.2285 702.634 84.2285 702.636 84.2275 702.639L84.2267 702.638C77.3022 723.893 55.3297 736.354 33.5584 731.372C11.7853 726.389 -2.59812 705.606 0.392763 683.448L0.792537 680.519C17.9365 556.315 62.1929 408.365 101.506 292.732C121.438 234.105 140.335 183.111 154.255 146.755C161.218 128.569 166.945 114.024 170.943 103.996C172.942 98.9816 174.509 95.0943 175.584 92.4441C176.121 91.119 176.535 90.1031 176.819 89.4097C176.961 89.063 177.07 88.7968 177.145 88.6131C177.183 88.5215 177.212 88.4502 177.233 88.3997C177.243 88.3746 177.252 88.3544 177.258 88.3396C177.261 88.3322 177.264 88.3245 177.266 88.3208C177.278 88.3195 177.878 88.5623 212.844 102.995L177.269 88.3106C186.359 66.242 211.598 55.7281 233.643 64.8272C255.688 73.9267 266.19 99.1942 257.101 121.263C257.101 121.264 257.101 121.264 257.1 121.265C257.098 121.272 257.093 121.283 257.086 121.3C257.073 121.333 257.05 121.386 257.02 121.46C256.959 121.608 256.865 121.839 256.738 122.149C256.484 122.771 256.1 123.713 255.593 124.963C254.58 127.462 253.076 131.19 251.143 136.039C247.276 145.737 241.695 159.912 234.886 177.694C233.241 181.99 231.525 186.495 229.744 191.197C257.745 150.084 287.895 112.326 319.81 81.5813C381.694 21.966 460.745 -20.5462 547.193 10.3581L548.503 10.8318C595.216 27.9306 625.224 60.446 642.154 100.182C683.024 68.8718 726.831 43.5667 772.05 30.0457C830.828 12.4706 892.695 14.795 950.323 49.9765L951.666 50.8066C1008.19 86.1652 1023.81 150.282 1024 209.655C1024.19 270.624 1008.56 339.373 989.149 401.805C969.547 464.862 945.121 524.499 925.733 568.147C916.011 590.037 907.487 608.056 901.368 620.654C898.307 626.956 895.844 631.911 894.129 635.324C893.271 637.03 892.599 638.353 892.133 639.266C891.9 639.722 891.718 640.076 891.589 640.326C891.525 640.45 891.475 640.549 891.438 640.621C891.419 640.657 891.404 640.686 891.393 640.709C891.387 640.72 891.381 640.731 891.378 640.737C891.373 640.747 891.368 640.755 853.259 620.975ZM562.057 302.045C515.81 359.293 475.654 420.534 446.472 473.473L445.307 475.594C418.098 525.246 389.673 592.27 373.783 649.543C365.768 678.435 361.633 702.427 361.453 719.427C361.446 720.095 361.444 720.737 361.448 721.352C371.535 714.249 384.213 702.115 398.345 685.141C430.484 646.536 461.197 593.879 476.563 557.007L479.731 549.378C508.759 479.248 543.92 387.435 562.057 302.045ZM853.038 620.861C852.669 620.669 852.303 620.48 851.942 620.292L853.259 620.975C853.185 620.937 853.111 620.899 853.038 620.861Z" fill="#12CD60"/>
</svg>
