<svg width="67" height="72" viewBox="0 0 67 72" fill="none" xmlns="http://www.w3.org/2000/svg">
<path d="M0.501 72V1.6H15.605V11.84H18.677L16.245 13.632C16.245 9.62133 17.397 6.42133 19.701 4.032C22.005 1.55733 24.8637 0.32 28.277 0.32C31.9463 0.32 34.805 1.89867 36.853 5.056C38.901 8.21333 39.925 12.3947 39.925 17.6L37.621 11.84H41.205L40.053 13.632C40.053 9.62133 41.1623 6.42133 43.381 4.032C45.5997 1.55733 48.5863 0.32 52.341 0.32C56.6077 0.32 60.0637 1.94133 62.709 5.184C65.3543 8.34133 66.677 12.6933 66.677 18.24V72H50.165V19.52C50.165 17.5573 49.7383 16.064 48.885 15.04C48.0317 13.9307 46.7943 13.376 45.173 13.376C43.5517 13.376 42.3143 13.9307 41.461 15.04C40.6077 16.064 40.181 17.5573 40.181 19.52V72H26.997V19.52C26.997 17.5573 26.5703 16.064 25.717 15.04C24.8637 13.9307 23.6263 13.376 22.005 13.376C20.3837 13.376 19.1463 13.9307 18.293 15.04C17.4397 16.064 17.013 17.5573 17.013 19.52V72H0.501Z" fill="url(#paint0_linear_82_6)"/>
<defs>
<linearGradient id="paint0_linear_82_6" x1="33.5" y1="3.15054" x2="33.5" y2="68.043" gradientUnits="userSpaceOnUse">
<stop stop-color="#EDDD53"/>
<stop offset="0.5" stop-color="#57C785"/>
<stop offset="1" stop-color="#2A7B9B"/>
</linearGradient>
</defs>
</svg>
